<?xml version="1.0" encoding="utf-8"?>
<!-- Generator: Adobe Illustrator 26.0.1, SVG Export Plug-In . SVG Version: 6.00 Build 0)  -->
<svg version="1.1" id="Layer_1" xmlns="http://www.w3.org/2000/svg" xmlns:xlink="http://www.w3.org/1999/xlink" x="0px" y="0px"
	 viewBox="0 0 1162 392" style="enable-background:new 0 0 1162 392;" xml:space="preserve">
<style type="text/css">
	.st0{fill:#FFFFFF;}
	.st1{fill:url(#SVGID_1_);}
	.st2{fill:url(#SVGID_00000130623115449851041210000004260868093890981540_);}
	.st3{fill:#1A1A1A;}
	.st4{fill:#232323;}
	.st5{fill:url(#SVGID_00000043451680849969818620000007229197755847426729_);}
	.st6{fill:url(#SVGID_00000030449372763744396990000008992050001531980470_);}
</style>
<g>
	<polygon class="st3" points="495.8,115.3 495.81,115.3 495.81,115.3 	"/>
	<polygon class="st3" points="495.81,115.3 495.82,115.3 495.82,115.3 	"/>
	<path class="st4" d="M574.44,160.58L574.44,160.58l0-0.01l0-0.01l0,0c-5.37-15.21-16.34-28.21-30.25-36.29
		c-11.12-6.55-23.97-9.87-36.81-9.87c-3.87,0-7.73,0.3-11.55,0.91c-17.84,2.72-34.52,12.39-45.48,26.81
		c-9.06,11.75-13.94,26.47-14,41.25c-0.03,11.42-0.04,22.83-0.04,34.24c0,12.72,0.01,25.43,0.01,38.15c0,5.13,0,10.26-0.01,15.39
		l0,2.34h2.34c8.17,0,16.33,0,24.48,0h2.33l0-2.33c0.01-8.87,0.01-17.75,0.01-26.62c0-9.41,0-18.82,0-28.22
		c0-11.59,0-23.18,0.01-34.77v-0.01l0-0.23c0-8.81,2.84-17.62,8.15-24.59l0.01-0.02c6.63-8.87,17.09-14.79,28.09-16.12l0.02,0
		l0.01,0c1.86-0.25,3.75-0.37,5.63-0.37c10.18,0,20.39,3.62,28,10.33l0.02,0.01l0.01,0.01c8.67,7.44,13.84,18.82,13.88,30.26v0
		c0.03,12.5,0.04,24.99,0.04,37.49c0,15.21-0.01,30.41-0.01,45.62c0,2.42,0,4.83,0,7.25l0,2.33l2.33,0c1.86,0,3.72,0,5.58,0
		c3.29,0,6.57,0,9.86,0c3.02,0,6.03,0,9.04,0.01l2.34,0l0-2.34c0-14.35,0.01-28.7,0.01-43.04c0-14.35,0-28.7-0.01-43.04
		C578.45,176.82,577.3,168.47,574.44,160.58z"/>
	<polygon class="st4" points="544.18,124.26 544.19,124.27 544.19,124.27 	"/>
	<polygon class="st3" points="450.34,142.12 450.34,142.11 450.35,142.1 	"/>
	<polygon class="st4" points="1043.82,114.44 1043.83,114.44 1043.83,114.44 	"/>
	<polygon class="st4" points="982.8,146.53 982.8,146.53 982.81,146.52 	"/>
	<polygon class="st4" points="1088.62,125.95 1088.62,125.96 1088.63,125.96 	"/>
	<polygon class="st4" points="1121.63,162.16 1121.63,162.16 1121.64,162.17 	"/>
	<path class="st4" d="M1121.63,162.16c-6.99-15.07-18.68-27.84-33.01-36.21c-12.79-7.59-27.61-11.55-42.43-11.55
		c-0.79,0-1.57,0.01-2.36,0.03c-24.63,0.51-48.61,12.56-63.65,32.09c-10.1,12.91-16.16,28.92-16.92,45.33
		c-0.08,1.43-0.12,2.87-0.12,4.3c0,15.14,4.4,30.22,12.57,42.97c9.48,15,23.93,26.72,40.52,32.98c9.52,3.66,19.69,5.48,29.86,5.48
		c4.75,0,9.49-0.4,14.17-1.19c17.43-2.91,33.81-11.54,46.04-24.29c11.2-11.56,18.92-26.48,21.61-42.4
		c0.79-4.52,1.18-9.11,1.18-13.69C1129.11,184.37,1126.58,172.73,1121.63,162.16z M1096.46,215.97
		c-4.72,13.06-14.58,24.31-27.05,30.41l-0.01,0.01c-7.18,3.58-15.24,5.4-23.29,5.4c-4.76,0-9.52-0.64-14.1-1.92l-0.01,0
		c-11.59-3.17-21.96-10.57-28.98-20.34l-0.01-0.01c-6.99-9.59-10.72-21.52-10.72-33.4c0-0.76,0.02-1.53,0.05-2.29l0-0.02
		c0.42-13.01,5.48-25.87,14.15-35.57l0-0.01l0.01-0.01c8.61-9.82,20.97-16.38,33.95-17.73l0.01,0c1.86-0.2,3.74-0.31,5.62-0.31
		c9.43,0,18.87,2.56,26.93,7.43l0.01,0.01c10.75,6.4,19.13,16.68,23.42,28.44l0.01,0.02l-0.01-0.01c2.36,6.36,3.54,13.15,3.54,19.94
		c0,6.79-1.18,13.58-3.51,19.93L1096.46,215.97z"/>
	<polygon class="st4" points="1060.29,276.4 1060.28,276.4 1060.28,276.4 	"/>
	<polygon class="st4" points="1127.93,209.72 1127.93,209.7 1127.93,209.71 	"/>
	<polygon class="st4" points="1018.87,272.11 1018.87,272.11 1018.86,272.11 	"/>
	<polygon class="st4" points="978.35,239.14 978.34,239.13 978.34,239.12 	"/>
	<polygon class="st4" points="1106.32,252.1 1106.32,252.11 1106.31,252.11 	"/>
	<polygon class="st4" points="965.89,191.87 965.89,191.86 965.89,191.85 	"/>
	<polygon class="st4" points="728.51,267.3 728.5,267.3 728.49,267.31 	"/>
	<path class="st4" d="M762.05,196.82c0-0.44,0-0.88,0-1.31v-0.01c0-24.89,0-49.77,0-74.65v-2.33l-2.33,0c-4.09,0-8.17,0-12.25,0
		c-4.08,0-8.16,0-12.24,0l-2.34,0v2.34c0,17.04,0.01,34.07,0.01,51.11c0,12.78,0,25.55-0.01,38.33v0.02l0,0.3
		c0,9.05-2.97,18.13-8.55,25.21l-0.01,0.01l-0.01,0.01c-7.21,9.38-18.77,15.26-30.6,15.89l-0.02,0l-0.01,0
		c-0.94,0.06-1.87,0.09-2.81,0.09c-10.85,0.01-21.75-4.2-29.47-11.78l-0.01-0.01l-0.01-0.01c-7.78-7.42-12.29-18.19-12.3-28.96
		c-0.03-12.95-0.03-25.89-0.03-38.84c0-14.17,0.01-28.35,0.01-42.53c0-2.95,0-5.9,0-8.85l0-2.34l-2.34,0c-4.08,0-8.16,0-12.24,0
		c-4.08,0-8.16,0-12.25,0l-2.33,0l0,2.33c0.01,5.85,0.01,11.71,0.01,17.56c0,11.68-0.01,23.36-0.01,35.04
		c0,11.67,0.01,23.33,0.03,35c0.04,15.03,5.03,30.02,14.36,41.88c10.97,14.21,27.53,23.71,45.22,26.38
		c3.79,0.59,7.62,0.89,11.46,0.89c13.13,0,26.27-3.46,37.56-10.3c15.53-9.25,27.21-24.74,31.47-42.38l0,0l0-0.02l0.01-0.03l0,0
		c1.88-7.21,2.08-14.49,2.08-21.59C762.07,201.11,762.05,198.96,762.05,196.82z"/>
	<polygon class="st4" points="627.73,250.35 627.72,250.34 627.72,250.33 	"/>
	<polygon class="st4" points="672.94,276.72 672.94,276.72 672.93,276.72 	"/>
	<path class="st4" d="M931.88,118.51c-4.32,0-8.64,0-12.95,0.01l-1.52,0l-0.61,1.39c-15.24,34.56-30.47,69.13-45.73,103.69
		c-15.24-34.56-30.5-69.11-45.72-103.68l-0.61-1.39l-1.52,0c-3.9-0.01-7.81-0.02-11.71-0.02c-4.74,0-9.49,0.01-14.23,0.02
		l-3.63,0.01l1.51,3.3c22.88,50.06,45.9,100.06,68.62,150.17l0.58,1.29l1.41,0.08c1.76,0.1,3.49,0.12,5.2,0.12
		c1.32,0,2.62-0.01,3.91-0.01c0.3,0,0.59,0,0.89,0l1.51,0.01l0.63-1.37c23.02-50.09,46-100.2,69.04-150.29l1.52-3.31l-3.64,0
		C940.52,118.51,936.2,118.51,931.88,118.51z"/>
	
		<linearGradient id="SVGID_1_" gradientUnits="userSpaceOnUse" x1="2696.835" y1="253.7036" x2="2698.1458" y2="253.7036" gradientTransform="matrix(129.2391 -129.2391 -129.2391 -129.2391 -315599.6562 381654.4062)">
		<stop  offset="0" style="stop-color:#00BCF3"/>
		<stop  offset="1.167848e-03" style="stop-color:#00BCF3"/>
		<stop  offset="1" style="stop-color:#FA00A4"/>
	</linearGradient>
	<path class="st1" d="M322.99,165.09c-6.38-6.38-25.15-25.15-45.57-45.57c2.23,4.21,4.17,8.56,5.74,13.03
		c3.93,10.85,5.94,22.95,5.95,35.97c0.01,37.11,0,134.05,0,134.05l-63.11-0.06l0-15.71c0-12.97,0-32.91,0.01-45.88
		c0.01-25.54,0.02-51.95-0.04-77.88c-0.05-11.26-5.1-22.3-13.53-29.55l-0.07-0.06l-0.07-0.06c-7.34-6.47-17.47-10.19-27.8-10.19
		c-1.88,0-3.76,0.12-5.59,0.37l-0.09,0.01l-0.09,0.01c-10.91,1.33-21.26,7.25-27.69,15.85l-0.04,0.05l-0.04,0.05
		c-5.17,6.79-7.99,15.43-7.94,24.33l0,0.05v0.05c-0.02,21.04-0.02,42.09-0.02,63.14c0,17.58,0,42.13-0.01,59.71l-0.01,15.72h-15.72
		h-5.67c2.01,2.01,3.88,3.88,5.56,5.56h0c0.27,0.27,0.54,0.54,0.81,0.81c0.76,0.76,1.47,1.47,2.14,2.14
		c0.17,0.17,0.33,0.33,0.49,0.49c1.85,1.85,3.35,3.35,4.38,4.38c7.31,7.31,14.94,14.94,23.09,23.09
		c8.38,8.38,19.74,13.08,31.58,13.08l108.41,0c21,0,38.03-17.03,38.03-38.03V196.63C336.06,184.81,331.35,173.45,322.99,165.09z"/>
	
		<linearGradient id="SVGID_00000178921197000763329650000003159495393602326152_" gradientUnits="userSpaceOnUse" x1="2697.8928" y1="249.0413" x2="2699.2039" y2="249.0413" gradientTransform="matrix(194.1359 -194.1359 194.1359 194.1359 -572087.1875 475609.3438)">
		<stop  offset="0" style="stop-color:#F7BC5E"/>
		<stop  offset="1.167848e-03" style="stop-color:#F7BC5E"/>
		<stop  offset="1" style="stop-color:#FA00A4"/>
	</linearGradient>
	<path style="fill:url(#SVGID_00000178921197000763329650000003159495393602326152_);" d="M79.9,166.26
		c0.09-22.12,7.46-43.78,20.73-61.02c16-21.06,40.39-35.46,66.94-39.5c5.55-0.88,11.24-1.33,16.9-1.33h0
		c17.75,0,35.02,4.28,50.25,12.4C222.21,64.31,212.9,55,210.88,52.99c-8.36-8.36-19.71-13.06-31.53-13.06H70.92
		c-21,0-38.03,17.03-38.03,38.03v117.41c0,11.83,4.71,23.18,13.07,31.55c5.24,5.24,18.81,18.81,33.9,33.9c0-9.11,0-18.21-0.01-25.59
		C79.85,212.63,79.84,189.27,79.9,166.26z"/>
</g>
</svg>
